<?xml version="1.0" standalone="no"?>
<!DOCTYPE svg PUBLIC "-//W3C//DTD SVG 20010904//EN"
 "http://www.w3.org/TR/2001/REC-SVG-20010904/DTD/svg10.dtd">
<svg version="1.0" xmlns="http://www.w3.org/2000/svg"
 width="1280.000000pt" height="1006.000000pt" viewBox="0 0 1280.000000 1006.000000"
 preserveAspectRatio="xMidYMid meet">
<metadata>
Created by potrace 1.15, written by Peter Selinger 2001-2017
</metadata>
<g transform="translate(0.000000,1006.000000) scale(0.100000,-0.100000)"
fill="#f094b4" stroke="none">
<path d="M7221 10050 c-739 -93 -1318 -693 -1420 -1470 -37 -278 -18 -511 69
-865 195 -792 557 -1383 1240 -2019 102 -95 277 -256 390 -357 590 -528 857
-801 1141 -1164 238 -305 485 -699 501 -799 9 -60 27 -76 83 -76 51 0 75 23
75 71 0 20 6 43 13 53 13 17 17 13 50 -47 21 -36 37 -80 38 -99 0 -18 3 -27 6
-20 7 17 21 15 26 -5 3 -10 5 -1 6 20 2 65 232 442 440 722 296 396 567 678
1199 1248 650 584 891 840 1126 1192 231 347 396 725 505 1161 52 209 70 317
81 478 27 405 -77 804 -292 1118 -69 101 -297 358 -408 461 -93 86 -253 194
-373 251 -261 124 -515 170 -819 148 -547 -39 -941 -203 -1263 -526 -146 -146
-238 -274 -326 -451 l-52 -105 -53 88 c-67 109 -127 188 -143 184 -7 -1 -10 2
-6 8 10 17 -250 299 -355 385 -262 213 -580 345 -967 400 -133 19 -413 27
-512 15z m4319 -4175 c-24 -25 -46 -45 -49 -45 -3 0 15 20 39 45 24 25 46 45
49 45 3 0 -15 -20 -39 -45z m-60 -58 c0 -2 -12 -14 -27 -28 l-28 -24 24 28
c23 25 31 32 31 24z m-300 -281 c0 -2 -8 -10 -17 -17 -16 -13 -17 -12 -4 4 13
16 21 21 21 13z m-390 -350 c0 -2 -8 -10 -17 -17 -16 -13 -17 -12 -4 4 13 16
21 21 21 13z m-250 -229 c0 -2 -12 -14 -27 -28 l-28 -24 24 28 c23 25 31 32
31 24z m-340 -340 c0 -2 -12 -14 -27 -28 l-28 -24 24 28 c23 25 31 32 31 24z"/>
<path d="M4990 7975 c-46 -21 -87 -60 -113 -110 -18 -34 -22 -56 -22 -140 1
-120 15 -163 102 -315 64 -111 107 -211 118 -273 6 -30 10 -35 21 -26 10 8 14
8 14 0 0 -6 25 9 55 34 30 24 126 80 213 122 178 88 248 146 297 246 24 49 27
66 23 126 -7 136 -91 215 -227 215 -70 0 -99 -11 -143 -51 l-27 -25 -12 41
c-16 52 -70 116 -121 142 -55 28 -133 34 -178 14z"/>
<path d="M4660 6879 c-117 -23 -252 -124 -303 -226 -14 -27 -31 -80 -37 -116
-12 -65 -12 -66 -31 -48 -67 62 -208 107 -310 97 -215 -20 -360 -153 -376
-346 -11 -125 26 -225 131 -356 111 -139 246 -226 486 -313 268 -98 488 -215
546 -290 13 -17 38 -5 30 15 -6 17 6 18 21 3 8 -8 13 1 18 37 19 139 81 318
177 508 114 227 150 351 149 519 -1 186 -43 310 -135 395 -107 99 -248 146
-366 121z m477 -601 c-3 -8 -6 -5 -6 6 -1 11 2 17 5 13 3 -3 4 -12 1 -19z"/>
<path d="M5702 6090 c-28 -20 -45 -42 -53 -68 l-11 -39 -40 14 c-56 19 -131
-5 -159 -51 -38 -62 -21 -124 54 -193 35 -33 65 -48 154 -76 61 -20 125 -45
144 -56 38 -23 49 -20 49 16 0 14 18 80 41 146 35 104 40 131 36 179 -6 70
-31 115 -77 139 -50 27 -90 24 -138 -11z"/>
<path d="M3713 5420 c-84 -20 -164 -95 -179 -166 l-6 -31 -48 32 c-94 63 -218
54 -292 -22 -46 -47 -58 -79 -58 -152 0 -77 36 -148 115 -228 51 -51 83 -72
191 -123 141 -68 199 -104 257 -159 31 -30 39 -33 47 -21 5 8 10 11 10 5 1 -5
11 22 24 61 21 65 41 105 152 310 116 213 70 427 -105 489 -47 16 -59 17 -108
5z"/>
<path d="M6482 5116 c-36 -33 -37 -37 -40 -113 -3 -76 -2 -80 47 -181 28 -57
56 -123 62 -148 6 -24 16 -44 21 -44 5 0 24 11 42 25 17 13 74 44 126 68 142
66 211 148 196 231 -18 95 -143 148 -209 89 -9 -9 -18 -14 -20 -12 -1 2 -11
21 -21 41 -24 47 -75 78 -127 78 -31 0 -47 -7 -77 -34z"/>
<path d="M5286 5085 c-55 -19 -112 -80 -138 -145 -17 -44 -22 -75 -22 -155 0
-88 5 -114 38 -215 45 -138 66 -234 66 -300 0 -45 2 -49 23 -46 12 1 49 15 82
30 33 16 130 46 215 68 183 46 251 80 324 159 71 77 92 156 65 254 -32 115
-212 187 -315 126 -19 -12 -37 -21 -40 -21 -2 0 -4 17 -4 38 -1 108 -125 224
-237 222 -10 -1 -35 -7 -57 -15z"/>
<path d="M4596 4736 c-22 -8 -49 -27 -60 -41 l-21 -27 -20 22 c-64 70 -161 66
-212 -9 -28 -42 -29 -75 -3 -144 16 -42 39 -73 106 -138 48 -46 99 -101 114
-122 l28 -38 19 27 c10 15 57 68 104 119 122 131 155 224 104 301 -34 53 -97
72 -159 50z"/>
<path d="M3024 4381 c-38 -23 -64 -58 -64 -87 0 -30 -8 -34 -38 -18 -80 42
-192 -22 -192 -109 0 -40 34 -100 76 -135 38 -31 69 -45 189 -82 39 -12 87
-32 107 -45 41 -27 43 -26 53 30 4 22 22 85 41 141 50 149 44 236 -22 293 -42
37 -101 42 -150 12z"/>
<path d="M7403 4345 c-130 -36 -222 -108 -275 -214 l-34 -70 -47 50 c-95 101
-193 142 -337 140 -63 0 -104 -6 -144 -21 -78 -30 -157 -104 -198 -188 -31
-63 -33 -72 -32 -177 0 -101 3 -117 33 -190 45 -111 111 -214 185 -288 67 -68
102 -95 309 -242 155 -110 281 -224 347 -314 41 -57 60 -68 60 -35 0 19 16 18
24 -3 5 -12 17 5 41 61 51 117 124 226 262 391 159 190 205 255 247 347 44 96
66 183 73 294 10 157 -25 250 -133 354 -83 80 -154 113 -254 117 -45 2 -96 -3
-127 -12z m494 -327 c-3 -8 -6 -5 -6 6 -1 11 2 17 5 13 3 -3 4 -12 1 -19z"/>
<path d="M3850 3905 c-107 -33 -215 -145 -253 -264 -27 -84 -32 -229 -13 -341
22 -122 65 -228 166 -401 145 -250 203 -381 230 -521 9 -43 19 -68 27 -68 7 0
13 5 13 10 0 16 18 12 22 -5 2 -11 27 5 84 52 107 89 203 145 420 246 99 46
206 100 239 121 124 80 243 216 307 352 31 64 33 76 33 169 -1 91 -4 107 -34
178 -73 172 -223 258 -423 244 -92 -6 -162 -35 -229 -95 l-47 -42 -11 46 c-59
233 -314 386 -531 319z m1080 -1018 c0 -2 -10 -12 -22 -23 l-23 -19 19 23 c18
21 26 27 26 19z"/>
<path d="M2732 3324 c-54 -27 -92 -67 -111 -117 l-11 -28 -25 29 c-40 47 -101
72 -177 72 -86 0 -142 -29 -183 -95 -25 -41 -30 -59 -30 -114 0 -55 6 -78 32
-132 47 -95 98 -147 236 -240 67 -46 152 -113 188 -150 49 -50 69 -65 78 -56
6 6 11 7 11 3 0 -5 18 27 40 70 21 44 78 129 126 189 114 144 146 213 152 321
5 98 -7 142 -56 196 -74 82 -172 101 -270 52z"/>
<path d="M8054 3336 c-81 -36 -134 -134 -134 -250 0 -92 24 -167 93 -295 72
-135 99 -198 117 -270 9 -37 16 -51 26 -47 8 3 14 1 14 -4 0 -6 25 10 56 35
30 25 103 68 162 96 201 96 216 104 267 154 72 70 106 132 112 205 7 69 -12
131 -55 182 -72 85 -234 93 -319 16 l-22 -21 -7 29 c-17 75 -81 145 -157 173
-39 15 -116 13 -153 -3z"/>
<path d="M6102 3135 c-83 -36 -152 -127 -152 -201 l0 -33 -42 24 c-82 47 -205
29 -274 -41 -97 -96 -77 -235 49 -351 61 -56 139 -93 277 -132 117 -33 250
-89 282 -117 25 -24 43 -1 52 64 8 60 38 162 91 311 35 98 37 110 33 200 -3
80 -8 106 -31 153 -54 110 -185 166 -285 123z"/>
<path d="M6914 2599 c-32 -9 -84 -54 -84 -71 0 -6 -16 4 -35 20 -75 67 -169
51 -214 -35 -39 -75 22 -191 153 -292 30 -23 66 -60 81 -81 15 -22 31 -40 36
-40 4 0 18 17 30 37 13 21 54 70 90 111 81 89 111 146 111 218 1 62 -27 109
-78 130 -37 16 -46 16 -90 3z"/>
<path d="M3278 2345 c-63 -36 -92 -136 -72 -250 30 -167 36 -208 31 -226 -6
-24 -2 -24 75 0 35 11 101 26 147 35 132 24 207 80 218 163 14 103 -92 180
-189 138 -15 -6 -18 -2 -18 29 0 56 -60 117 -120 122 -29 3 -55 -1 -72 -11z"/>
<path d="M5114 2091 c-32 -14 -74 -69 -75 -99 -4 -92 9 -136 71 -232 33 -51
67 -112 76 -136 9 -24 22 -44 28 -44 7 0 25 14 42 31 16 17 64 51 107 76 125
73 177 139 177 228 0 38 -6 52 -34 83 -32 35 -38 37 -94 37 -49 0 -65 -4 -85
-23 l-24 -23 -21 35 c-11 19 -32 42 -46 51 -30 20 -93 28 -122 16z"/>
<path d="M2063 1999 c-45 -13 -80 -60 -93 -126 -13 -59 -10 -73 44 -263 9 -30
16 -70 16 -87 0 -38 11 -41 63 -14 20 10 78 29 128 41 151 38 229 106 229 201
0 96 -98 155 -192 115 -13 -6 -19 0 -28 32 -10 41 -68 102 -95 102 -7 0 -19 2
-27 4 -7 2 -27 0 -45 -5z"/>
<path d="M3925 1736 c-5 -3 -22 -7 -37 -10 -38 -9 -95 -61 -120 -110 -30 -57
-36 -191 -13 -272 9 -32 45 -111 79 -174 67 -122 110 -222 120 -281 8 -47 25
-45 101 10 33 23 103 63 155 88 52 24 119 56 148 70 69 32 161 118 195 182 53
97 46 204 -20 281 -45 52 -92 72 -174 74 -58 1 -72 -3 -118 -31 -46 -29 -52
-31 -57 -15 -28 86 -58 123 -124 157 -46 23 -114 39 -135 31z"/>
<path d="M2553 960 c-36 -21 -58 -52 -68 -92 -7 -27 -8 -27 -36 -13 -37 20
-65 19 -116 -4 -53 -24 -77 -68 -70 -124 11 -82 85 -143 225 -187 53 -17 116
-41 139 -54 46 -26 53 -25 53 12 0 13 18 79 41 145 45 134 49 200 15 266 -35
66 -120 90 -183 51z"/>
<path d="M1452 951 c-58 -20 -114 -67 -133 -112 l-12 -29 -47 44 c-56 53 -111
70 -193 63 -78 -7 -128 -42 -163 -114 -23 -46 -26 -63 -21 -113 10 -118 83
-231 212 -328 134 -102 195 -155 236 -209 24 -30 45 -50 47 -44 2 6 8 9 12 6
5 -3 20 16 34 42 31 62 64 107 160 218 97 111 120 147 146 224 28 84 27 172
-4 236 -28 60 -56 87 -116 114 -55 25 -90 26 -158 2z"/>
<path d="M72 518 c-44 -22 -67 -76 -66 -158 0 -64 6 -88 37 -159 20 -45 41
-108 47 -138 7 -30 15 -53 18 -51 4 2 36 17 72 35 36 17 97 43 135 57 83 31
138 73 165 127 24 46 25 80 4 124 -20 43 -52 64 -109 72 -33 4 -51 1 -71 -11
-14 -10 -27 -16 -28 -14 -1 2 -8 18 -16 36 -21 53 -73 92 -123 91 -23 0 -52
-5 -65 -11z"/>
</g>
</svg>
